<?xml version="1.0" encoding="utf-8"?>
<!-- Generator: Adobe Illustrator 25.3.1, SVG Export Plug-In . SVG Version: 6.00 Build 0)  -->
<svg version="1.1" id="Layer_1" xmlns="http://www.w3.org/2000/svg" xmlns:xlink="http://www.w3.org/1999/xlink" x="0px" y="0px"
	 viewBox="0 0 265 620" style="enable-background:new 0 0 265 620;" xml:space="preserve">
<style type="text/css">
	.st0{fill-rule:evenodd;clip-rule:evenodd;fill:#FFFFFF;}
</style>
<path class="st0" d="M27,27h211v566H27V27z M0,0h27h211h27v27v566v27h-27H27H0v-27V27V0z M104.5,200H60l49-71.2L60,60h47.6
	l25.3,39.4L158.4,60H205l-49,68.4l49,71.6h-45.5l-27.4-42.2L104.5,200z M195,560H70v-28.2l70.4-79H70V420h125v28.2l-71.5,79H195V560
	z M112,380h39.9v-53l53.1-87h-43.3L133,291l-28.9-51H60l52,87.6V380z"/>
</svg>
